<?xml version="1.0" encoding="utf-8"?>
<!-- Generator: Adobe Illustrator 19.0.0, SVG Export Plug-In . SVG Version: 6.00 Build 0)  -->
<svg version="1.1" id="Layer_1" xmlns="http://www.w3.org/2000/svg" xmlns:xlink="http://www.w3.org/1999/xlink" x="0px" y="0px"
	 viewBox="0 0 128 128" style="enable-background:new 0 0 128 128;" xml:space="preserve">
<style type="text/css">
	.st0{clip-path:url(#XMLID_6_);fill:#C7D9F5;}
	.st1{clip-path:url(#XMLID_6_);}
	.st2{fill:#FFFFFF;}
	.st3{fill:none;}
	.st4{fill:#C7D9F5;}
</style>
<g id="New_Symbol_1">
</g>
<g id="New_Symbol_2">
</g>
<g id="New_Symbol">
</g>
<g id="XMLID_12_">
	<defs>
		<circle id="XMLID_40_" cx="64" cy="64" r="62.5"/>
	</defs>
	<clipPath id="XMLID_6_">
		<use xlink:href="#XMLID_40_"  style="overflow:visible;"/>
	</clipPath>
	<circle id="XMLID_13_" class="st0" cx="64" cy="64" r="80.7"/>
	<g id="XMLID_11_" class="st1">
		<g id="XMLID_158_">
			<path id="XMLID_160_" class="st2" d="M-29.1,86.5c-5.6,0-9.8-3-13.3-7.4c7.6-9.6,12-26.2,19.4-36v-4.1
				c-4.9,5.3-8.4,13.1-11.9,20.8c-2.9,6.5-6,13.2-9.6,17.8l-1.2,1.6l1.2,1.6c4.5,5.7,9.5,8.5,15.4,8.5c2.2,0,4.2-0.4,6.1-1.1v-2.8
				C-24.8,86-26.9,86.5-29.1,86.5z"/>
			<path id="XMLID_159_" d="M-29.1,86.5c2.2,0,4.2-0.5,6.1-1.3V43c-7.4,9.9-11.8,26.5-19.4,36C-38.9,83.6-34.7,86.5-29.1,86.5z"/>
		</g>
		<g id="XMLID_149_">
			<path id="XMLID_157_" class="st2" d="M4.7,42.2c-4.1-4.4-8.6-6.6-13.8-6.6c-5.8,0-10.2,2.6-13.9,6.6v49.1c3-1.1,5.5-3,7.8-5.5
				c4.1,4.4,8.6,6.6,13.8,6.6c2.2,0,4.2-0.4,6.1-1.1V42.2z"/>
			<path id="XMLID_152_" d="M-9.1,38.2c-5.8,0-10.2,3.3-13.9,8.1v42.2c12.8-5.9,17.3-30.3,27.2-42.8C0.7,41.2-3.6,38.2-9.1,38.2z"/>
			<rect id="XMLID_151_" x="-23" y="35.6" class="st3" width="27.7" height="56.8"/>
		</g>
		<rect id="XMLID_146_" x="4.7" y="35.6" class="st3" width="27.7" height="56.8"/>
		<rect id="XMLID_131_" x="32.4" y="35.6" class="st3" width="27.7" height="56.8"/>
		<rect id="XMLID_126_" x="60.1" y="35.6" class="st3" width="27.7" height="56.8"/>
		<rect id="XMLID_113_" x="87.8" y="35.6" class="st3" width="27.7" height="56.8"/>
		<g id="XMLID_55_">
			<path id="XMLID_4_" class="st2" d="M129.4,35.6c-5.8,0-10.2,2.6-13.9,6.6v0c-4.1-4.4-8.6-6.6-13.8-6.6c-5.8,0-10.2,2.6-13.9,6.6
				v0c-4.1-4.4-8.6-6.6-13.8-6.6c-5.8,0-10.2,2.6-13.9,6.6v0c-4.1-4.4-8.6-6.6-13.8-6.6c-5.8,0-10.2,2.6-13.9,6.6v0
				c-4.1-4.4-8.6-6.6-13.8-6.6c-5.8,0-10.2,2.6-13.9,6.6v49.1c3-1.1,5.5-3,7.8-5.5c4.1,4.4,8.6,6.6,13.8,6.6c2.2,0,4.2-0.4,6.1-1.1
				v0c3-1.1,5.5-3,7.8-5.5c4.1,4.4,8.6,6.6,13.8,6.6c2.2,0,4.2-0.4,6.1-1.1v0c3-1.1,5.5-3,7.8-5.5c4.1,4.4,8.6,6.6,13.8,6.6
				c2.2,0,4.2-0.4,6.1-1.1v0c3-1.1,5.5-3,7.8-5.5c4.1,4.4,8.6,6.6,13.8,6.6c2.2,0,4.2-0.4,6.1-1.1v0c3-1.1,5.5-3,7.8-5.5
				c4.1,4.4,8.6,6.6,13.8,6.6c2.2,0,4.2-0.4,6.1-1.1V42.2C139.1,37.8,134.6,35.6,129.4,35.6z"/>
			<g id="XMLID_1_">
				<path id="XMLID_2_" class="st4" d="M18.6,38.2c-5.8,0-10.2,3.3-13.9,8.1v0c-7.4,9.9-11.8,26.5-19.4,36c3.5,4.5,7.8,7.4,13.3,7.4
					c2.2,0,4.2-0.5,6.1-1.3v0C17.5,82.6,22,58.1,31.9,45.6C28.4,41.2,24.1,38.2,18.6,38.2z"/>
				<path id="XMLID_16_" class="st4" d="M46.3,38.2c-5.8,0-10.2,3.3-13.9,8.1v0C25,56.2,20.6,72.8,13,82.4c3.5,4.5,7.8,7.4,13.3,7.4
					c2.2,0,4.2-0.5,6.1-1.3v0c12.8-5.9,17.3-30.3,27.2-42.8C56.1,41.2,51.8,38.2,46.3,38.2z"/>
				<path id="XMLID_17_" class="st4" d="M74,38.2c-5.8,0-10.2,3.3-13.9,8.1v0c-7.4,9.9-11.8,26.5-19.4,36c3.5,4.5,7.8,7.4,13.3,7.4
					c2.2,0,4.2-0.5,6.1-1.3v0C73,82.6,77.4,58.1,87.3,45.6C83.8,41.2,79.5,38.2,74,38.2z"/>
				<path id="XMLID_18_" class="st4" d="M101.7,38.2c-5.8,0-10.2,3.3-13.9,8.1v0c-7.4,9.9-11.8,26.5-19.4,36
					c3.5,4.5,7.8,7.4,13.3,7.4c2.2,0,4.2-0.5,6.1-1.3v0c12.8-5.9,17.3-30.3,27.2-42.8C111.5,41.2,107.2,38.2,101.7,38.2z"/>
				<path id="XMLID_19_" class="st4" d="M129.4,38.2c-5.8,0-10.2,3.3-13.9,8.1v0c-7.4,9.9-11.8,26.5-19.4,36
					c3.5,4.5,7.8,7.4,13.3,7.4c2.2,0,4.2-0.5,6.1-1.3v0c12.8-5.9,17.3-30.3,27.2-42.8C139.2,41.2,134.9,38.2,129.4,38.2z"/>
			</g>
			<rect id="XMLID_64_" x="115.5" y="35.6" class="st3" width="27.7" height="56.8"/>
			<path id="XMLID_57_" d="M143.2,46.3c-7.4,9.9-11.8,26.5-19.4,36c3.5,4.5,7.8,7.4,13.3,7.4c2.2,0,4.2-0.5,6.1-1.3V46.3z"/>
		</g>
		<g id="XMLID_45_">
			<path id="XMLID_50_" class="st2" d="M157.1,36.2c5.9,0,10.9,2.8,15.4,8.5l1.2,1.6l-1.2,1.6c-3.7,4.6-6.7,11.3-9.6,17.8
				c-5.1,11.2-10.3,22.7-19.7,26.2V42.7C146.9,38.8,151.3,36.2,157.1,36.2z"/>
			<path id="XMLID_47_" d="M157.1,38.8c-5.8,0-10.2,3.3-13.9,8.1V89c12.8-5.9,17.3-30.3,27.2-42.8C166.9,41.7,162.7,38.8,157.1,38.8
				z"/>
		</g>
	</g>
</g>
<g id="XMLID_3_">
	<path id="XMLID_24_" class="st2" d="M64,4.5c32.8,0,59.5,26.7,59.5,59.5S96.8,123.5,64,123.5S4.5,96.8,4.5,64S31.2,4.5,64,4.5
		 M64,1.5C29.5,1.5,1.5,29.5,1.5,64s28,62.5,62.5,62.5s62.5-28,62.5-62.5S98.5,1.5,64,1.5L64,1.5z"/>
</g>
</svg>
